<svg id="visual" viewBox="0 0 2500 250" width="2500" height="250" xmlns="http://www.w3.org/2000/svg" xmlns:xlink="http://www.w3.org/1999/xlink" version="1.1"><rect x="0" y="0" width="2500" height="250" fill="#FEEFCF"></rect><path d="M0 133L24.5 133.2C49 133.3 98 133.7 147 135.8C196 138 245 142 294 152.2C343 162.3 392 178.7 441 177.3C490 176 539 157 588 158.3C637 159.7 686 181.3 735 179C784 176.7 833 150.3 882 137.2C931 124 980 124 1029 126C1078 128 1127 132 1176.2 131C1225.3 130 1274.7 124 1323.8 126C1373 128 1422 138 1471 148.5C1520 159 1569 170 1618 175.5C1667 181 1716 181 1765 177.5C1814 174 1863 167 1912 171.3C1961 175.7 2010 191.3 2059 199C2108 206.7 2157 206.3 2206 194.5C2255 182.7 2304 159.3 2353 158.8C2402 158.3 2451 180.7 2475.5 191.8L2500 203L2500 251L2475.5 251C2451 251 2402 251 2353 251C2304 251 2255 251 2206 251C2157 251 2108 251 2059 251C2010 251 1961 251 1912 251C1863 251 1814 251 1765 251C1716 251 1667 251 1618 251C1569 251 1520 251 1471 251C1422 251 1373 251 1323.8 251C1274.7 251 1225.3 251 1176.2 251C1127 251 1078 251 1029 251C980 251 931 251 882 251C833 251 784 251 735 251C686 251 637 251 588 251C539 251 490 251 441 251C392 251 343 251 294 251C245 251 196 251 147 251C98 251 49 251 24.5 251L0 251Z" fill="#FFAE00" stroke-linecap="round" stroke-linejoin="miter"></path></svg>